<mxfile host="app.diagrams.net" modified="2023-05-23T15:31:56.692Z" agent="Mozilla/5.0 (X11; Ubuntu; Linux x86_64; rv:109.0) Gecko/20100101 Firefox/113.0" etag="zmTlTOQIhzkNadce9eSE" version="21.3.3" type="github">
  <diagram id="C5RBs43oDa-KdzZeNtuy" name="Page-1">
    <mxGraphModel dx="1233" dy="1737" grid="1" gridSize="10" guides="1" tooltips="1" connect="1" arrows="1" fold="1" page="1" pageScale="1" pageWidth="827" pageHeight="1169" math="0" shadow="0">
      <root>
        <mxCell id="WIyWlLk6GJQsqaUBKTNV-0" />
        <mxCell id="WIyWlLk6GJQsqaUBKTNV-1" parent="WIyWlLk6GJQsqaUBKTNV-0" />
        <mxCell id="Vdofp5Nk-h54q8rI2jxK-0" value="Fim" style="strokeWidth=2;html=1;shape=mxgraph.flowchart.start_1;whiteSpace=wrap;" vertex="1" parent="WIyWlLk6GJQsqaUBKTNV-1">
          <mxGeometry x="170" y="960" width="100" height="60" as="geometry" />
        </mxCell>
        <mxCell id="Vdofp5Nk-h54q8rI2jxK-22" value="" style="edgeStyle=orthogonalEdgeStyle;rounded=0;orthogonalLoop=1;jettySize=auto;html=1;" edge="1" parent="WIyWlLk6GJQsqaUBKTNV-1" source="Vdofp5Nk-h54q8rI2jxK-1" target="Vdofp5Nk-h54q8rI2jxK-21">
          <mxGeometry relative="1" as="geometry" />
        </mxCell>
        <mxCell id="Vdofp5Nk-h54q8rI2jxK-1" value="Inicío" style="strokeWidth=2;html=1;shape=mxgraph.flowchart.start_1;whiteSpace=wrap;" vertex="1" parent="WIyWlLk6GJQsqaUBKTNV-1">
          <mxGeometry x="170" y="-120" width="100" height="60" as="geometry" />
        </mxCell>
        <mxCell id="Vdofp5Nk-h54q8rI2jxK-19" value="" style="edgeStyle=orthogonalEdgeStyle;rounded=0;orthogonalLoop=1;jettySize=auto;html=1;" edge="1" parent="WIyWlLk6GJQsqaUBKTNV-1" source="Vdofp5Nk-h54q8rI2jxK-2" target="Vdofp5Nk-h54q8rI2jxK-18">
          <mxGeometry relative="1" as="geometry" />
        </mxCell>
        <mxCell id="Vdofp5Nk-h54q8rI2jxK-2" value="&lt;div&gt;I ← 1&lt;/div&gt;" style="rounded=1;whiteSpace=wrap;html=1;strokeWidth=2;" vertex="1" parent="WIyWlLk6GJQsqaUBKTNV-1">
          <mxGeometry x="160" y="80" width="120" height="60" as="geometry" />
        </mxCell>
        <mxCell id="Vdofp5Nk-h54q8rI2jxK-13" value="" style="edgeStyle=orthogonalEdgeStyle;rounded=0;orthogonalLoop=1;jettySize=auto;html=1;" edge="1" parent="WIyWlLk6GJQsqaUBKTNV-1" source="Vdofp5Nk-h54q8rI2jxK-4" target="Vdofp5Nk-h54q8rI2jxK-6">
          <mxGeometry relative="1" as="geometry" />
        </mxCell>
        <mxCell id="Vdofp5Nk-h54q8rI2jxK-4" value="RESTO←N%2" style="rounded=1;whiteSpace=wrap;html=1;strokeWidth=2;" vertex="1" parent="WIyWlLk6GJQsqaUBKTNV-1">
          <mxGeometry x="160" y="300" width="120" height="60" as="geometry" />
        </mxCell>
        <mxCell id="Vdofp5Nk-h54q8rI2jxK-14" value="" style="edgeStyle=orthogonalEdgeStyle;rounded=0;orthogonalLoop=1;jettySize=auto;html=1;" edge="1" parent="WIyWlLk6GJQsqaUBKTNV-1" source="Vdofp5Nk-h54q8rI2jxK-6" target="Vdofp5Nk-h54q8rI2jxK-8">
          <mxGeometry relative="1" as="geometry" />
        </mxCell>
        <mxCell id="Vdofp5Nk-h54q8rI2jxK-25" style="edgeStyle=orthogonalEdgeStyle;rounded=0;orthogonalLoop=1;jettySize=auto;html=1;exitX=1;exitY=0.5;exitDx=0;exitDy=0;entryX=1;entryY=0.5;entryDx=0;entryDy=0;" edge="1" parent="WIyWlLk6GJQsqaUBKTNV-1" source="Vdofp5Nk-h54q8rI2jxK-6" target="Vdofp5Nk-h54q8rI2jxK-18">
          <mxGeometry relative="1" as="geometry">
            <Array as="points">
              <mxPoint x="350" y="430" />
              <mxPoint x="350" y="210" />
            </Array>
          </mxGeometry>
        </mxCell>
        <mxCell id="Vdofp5Nk-h54q8rI2jxK-6" value="RESTO==0" style="rhombus;whiteSpace=wrap;html=1;rounded=1;strokeWidth=2;" vertex="1" parent="WIyWlLk6GJQsqaUBKTNV-1">
          <mxGeometry x="180" y="390" width="80" height="80" as="geometry" />
        </mxCell>
        <mxCell id="Vdofp5Nk-h54q8rI2jxK-27" value="" style="edgeStyle=orthogonalEdgeStyle;rounded=0;orthogonalLoop=1;jettySize=auto;html=1;" edge="1" parent="WIyWlLk6GJQsqaUBKTNV-1" source="Vdofp5Nk-h54q8rI2jxK-8" target="Vdofp5Nk-h54q8rI2jxK-26">
          <mxGeometry relative="1" as="geometry" />
        </mxCell>
        <mxCell id="Vdofp5Nk-h54q8rI2jxK-8" value="&lt;div&gt;X←N+X&lt;/div&gt;" style="rounded=1;whiteSpace=wrap;html=1;strokeWidth=2;" vertex="1" parent="WIyWlLk6GJQsqaUBKTNV-1">
          <mxGeometry x="160" y="524" width="120" height="60" as="geometry" />
        </mxCell>
        <mxCell id="Vdofp5Nk-h54q8rI2jxK-24" style="edgeStyle=orthogonalEdgeStyle;rounded=0;orthogonalLoop=1;jettySize=auto;html=1;exitX=0;exitY=0.5;exitDx=0;exitDy=0;entryX=0;entryY=0.5;entryDx=0;entryDy=0;" edge="1" parent="WIyWlLk6GJQsqaUBKTNV-1" source="Vdofp5Nk-h54q8rI2jxK-10" target="Vdofp5Nk-h54q8rI2jxK-18">
          <mxGeometry relative="1" as="geometry">
            <Array as="points">
              <mxPoint x="80" y="860" />
              <mxPoint x="80" y="210" />
            </Array>
          </mxGeometry>
        </mxCell>
        <mxCell id="Vdofp5Nk-h54q8rI2jxK-29" value="" style="edgeStyle=orthogonalEdgeStyle;rounded=0;orthogonalLoop=1;jettySize=auto;html=1;" edge="1" parent="WIyWlLk6GJQsqaUBKTNV-1" source="Vdofp5Nk-h54q8rI2jxK-10" target="Vdofp5Nk-h54q8rI2jxK-0">
          <mxGeometry relative="1" as="geometry" />
        </mxCell>
        <mxCell id="Vdofp5Nk-h54q8rI2jxK-10" value="I&amp;lt;=500" style="rhombus;whiteSpace=wrap;html=1;rounded=1;strokeWidth=2;" vertex="1" parent="WIyWlLk6GJQsqaUBKTNV-1">
          <mxGeometry x="180" y="820" width="80" height="80" as="geometry" />
        </mxCell>
        <mxCell id="Vdofp5Nk-h54q8rI2jxK-17" value="" style="edgeStyle=orthogonalEdgeStyle;rounded=0;orthogonalLoop=1;jettySize=auto;html=1;" edge="1" parent="WIyWlLk6GJQsqaUBKTNV-1" source="Vdofp5Nk-h54q8rI2jxK-15" target="Vdofp5Nk-h54q8rI2jxK-10">
          <mxGeometry relative="1" as="geometry" />
        </mxCell>
        <mxCell id="Vdofp5Nk-h54q8rI2jxK-15" value="I←I+1" style="whiteSpace=wrap;html=1;rounded=1;strokeWidth=2;" vertex="1" parent="WIyWlLk6GJQsqaUBKTNV-1">
          <mxGeometry x="160" y="720" width="120" height="60" as="geometry" />
        </mxCell>
        <mxCell id="Vdofp5Nk-h54q8rI2jxK-20" value="" style="edgeStyle=orthogonalEdgeStyle;rounded=0;orthogonalLoop=1;jettySize=auto;html=1;" edge="1" parent="WIyWlLk6GJQsqaUBKTNV-1" source="Vdofp5Nk-h54q8rI2jxK-18" target="Vdofp5Nk-h54q8rI2jxK-4">
          <mxGeometry relative="1" as="geometry" />
        </mxCell>
        <mxCell id="Vdofp5Nk-h54q8rI2jxK-18" value="N←N+1" style="whiteSpace=wrap;html=1;rounded=1;strokeWidth=2;" vertex="1" parent="WIyWlLk6GJQsqaUBKTNV-1">
          <mxGeometry x="160" y="180" width="120" height="60" as="geometry" />
        </mxCell>
        <mxCell id="Vdofp5Nk-h54q8rI2jxK-23" value="" style="edgeStyle=orthogonalEdgeStyle;rounded=0;orthogonalLoop=1;jettySize=auto;html=1;" edge="1" parent="WIyWlLk6GJQsqaUBKTNV-1" source="Vdofp5Nk-h54q8rI2jxK-21" target="Vdofp5Nk-h54q8rI2jxK-2">
          <mxGeometry relative="1" as="geometry" />
        </mxCell>
        <mxCell id="Vdofp5Nk-h54q8rI2jxK-21" value="X,RESTO,N" style="shape=manualInput;perimeter=rectanglePerimeter;whiteSpace=wrap;html=1;fixedSize=1;strokeWidth=2;rounded=1;arcSize=11;" vertex="1" parent="WIyWlLk6GJQsqaUBKTNV-1">
          <mxGeometry x="160" y="-30" width="120" height="60" as="geometry" />
        </mxCell>
        <mxCell id="Vdofp5Nk-h54q8rI2jxK-28" value="" style="edgeStyle=orthogonalEdgeStyle;rounded=0;orthogonalLoop=1;jettySize=auto;html=1;" edge="1" parent="WIyWlLk6GJQsqaUBKTNV-1" source="Vdofp5Nk-h54q8rI2jxK-26" target="Vdofp5Nk-h54q8rI2jxK-15">
          <mxGeometry relative="1" as="geometry" />
        </mxCell>
        <mxCell id="Vdofp5Nk-h54q8rI2jxK-26" value="X" style="strokeWidth=2;html=1;shape=mxgraph.flowchart.display;whiteSpace=wrap;" vertex="1" parent="WIyWlLk6GJQsqaUBKTNV-1">
          <mxGeometry x="170" y="620" width="100" height="60" as="geometry" />
        </mxCell>
        <mxCell id="Vdofp5Nk-h54q8rI2jxK-30" value="SIM" style="text;html=1;strokeColor=none;fillColor=none;align=center;verticalAlign=middle;whiteSpace=wrap;rounded=0;" vertex="1" parent="WIyWlLk6GJQsqaUBKTNV-1">
          <mxGeometry x="90" y="840" width="60" height="30" as="geometry" />
        </mxCell>
        <mxCell id="Vdofp5Nk-h54q8rI2jxK-32" value="NÃO" style="text;html=1;strokeColor=none;fillColor=none;align=center;verticalAlign=middle;whiteSpace=wrap;rounded=0;" vertex="1" parent="WIyWlLk6GJQsqaUBKTNV-1">
          <mxGeometry x="210" y="900" width="60" height="30" as="geometry" />
        </mxCell>
        <mxCell id="Vdofp5Nk-h54q8rI2jxK-33" value="SIM" style="text;html=1;strokeColor=none;fillColor=none;align=center;verticalAlign=middle;whiteSpace=wrap;rounded=0;" vertex="1" parent="WIyWlLk6GJQsqaUBKTNV-1">
          <mxGeometry x="170" y="460" width="60" height="30" as="geometry" />
        </mxCell>
        <mxCell id="Vdofp5Nk-h54q8rI2jxK-34" value="NÃO" style="text;html=1;strokeColor=none;fillColor=none;align=center;verticalAlign=middle;whiteSpace=wrap;rounded=0;" vertex="1" parent="WIyWlLk6GJQsqaUBKTNV-1">
          <mxGeometry x="260" y="400" width="60" height="30" as="geometry" />
        </mxCell>
        <mxCell id="Vdofp5Nk-h54q8rI2jxK-37" value="" style="edgeStyle=orthogonalEdgeStyle;rounded=0;orthogonalLoop=1;jettySize=auto;html=1;" edge="1" parent="WIyWlLk6GJQsqaUBKTNV-1" source="Vdofp5Nk-h54q8rI2jxK-35" target="Vdofp5Nk-h54q8rI2jxK-36">
          <mxGeometry relative="1" as="geometry" />
        </mxCell>
        <mxCell id="Vdofp5Nk-h54q8rI2jxK-35" value="Inicío" style="strokeWidth=2;html=1;shape=mxgraph.flowchart.start_1;whiteSpace=wrap;" vertex="1" parent="WIyWlLk6GJQsqaUBKTNV-1">
          <mxGeometry x="570" y="-120" width="100" height="60" as="geometry" />
        </mxCell>
        <mxCell id="Vdofp5Nk-h54q8rI2jxK-39" value="" style="edgeStyle=orthogonalEdgeStyle;rounded=0;orthogonalLoop=1;jettySize=auto;html=1;" edge="1" parent="WIyWlLk6GJQsqaUBKTNV-1" source="Vdofp5Nk-h54q8rI2jxK-36" target="Vdofp5Nk-h54q8rI2jxK-38">
          <mxGeometry relative="1" as="geometry" />
        </mxCell>
        <mxCell id="Vdofp5Nk-h54q8rI2jxK-36" value="N,RESTO" style="rounded=1;whiteSpace=wrap;html=1;strokeWidth=2;shape=manualInput;arcSize=11;" vertex="1" parent="WIyWlLk6GJQsqaUBKTNV-1">
          <mxGeometry x="560" y="20" width="120" height="60" as="geometry" />
        </mxCell>
        <mxCell id="Vdofp5Nk-h54q8rI2jxK-45" value="" style="edgeStyle=orthogonalEdgeStyle;rounded=0;orthogonalLoop=1;jettySize=auto;html=1;" edge="1" parent="WIyWlLk6GJQsqaUBKTNV-1" source="Vdofp5Nk-h54q8rI2jxK-38" target="Vdofp5Nk-h54q8rI2jxK-44">
          <mxGeometry relative="1" as="geometry" />
        </mxCell>
        <mxCell id="Vdofp5Nk-h54q8rI2jxK-38" value="I←1" style="whiteSpace=wrap;html=1;rounded=1;strokeWidth=2;arcSize=11;" vertex="1" parent="WIyWlLk6GJQsqaUBKTNV-1">
          <mxGeometry x="560" y="160" width="120" height="60" as="geometry" />
        </mxCell>
        <mxCell id="Vdofp5Nk-h54q8rI2jxK-47" value="" style="edgeStyle=orthogonalEdgeStyle;rounded=0;orthogonalLoop=1;jettySize=auto;html=1;" edge="1" parent="WIyWlLk6GJQsqaUBKTNV-1" source="Vdofp5Nk-h54q8rI2jxK-44" target="Vdofp5Nk-h54q8rI2jxK-46">
          <mxGeometry relative="1" as="geometry" />
        </mxCell>
        <mxCell id="Vdofp5Nk-h54q8rI2jxK-60" style="edgeStyle=orthogonalEdgeStyle;rounded=0;orthogonalLoop=1;jettySize=auto;html=1;exitX=1;exitY=0.5;exitDx=0;exitDy=0;exitPerimeter=0;entryX=1;entryY=0.5;entryDx=0;entryDy=0;" edge="1" parent="WIyWlLk6GJQsqaUBKTNV-1" source="Vdofp5Nk-h54q8rI2jxK-44" target="Vdofp5Nk-h54q8rI2jxK-58">
          <mxGeometry relative="1" as="geometry">
            <Array as="points">
              <mxPoint x="790" y="330" />
              <mxPoint x="790" y="890" />
            </Array>
          </mxGeometry>
        </mxCell>
        <mxCell id="Vdofp5Nk-h54q8rI2jxK-44" value="I&amp;lt;=20" style="whiteSpace=wrap;html=1;rounded=1;strokeWidth=2;arcSize=11;shape=mxgraph.flowchart.decision;" vertex="1" parent="WIyWlLk6GJQsqaUBKTNV-1">
          <mxGeometry x="560" y="300" width="120" height="60" as="geometry" />
        </mxCell>
        <mxCell id="Vdofp5Nk-h54q8rI2jxK-49" value="" style="edgeStyle=orthogonalEdgeStyle;rounded=0;orthogonalLoop=1;jettySize=auto;html=1;" edge="1" parent="WIyWlLk6GJQsqaUBKTNV-1" source="Vdofp5Nk-h54q8rI2jxK-46" target="Vdofp5Nk-h54q8rI2jxK-48">
          <mxGeometry relative="1" as="geometry" />
        </mxCell>
        <mxCell id="Vdofp5Nk-h54q8rI2jxK-46" value="RESTO←N%2" style="whiteSpace=wrap;html=1;rounded=1;strokeWidth=2;arcSize=11;" vertex="1" parent="WIyWlLk6GJQsqaUBKTNV-1">
          <mxGeometry x="560" y="440" width="120" height="60" as="geometry" />
        </mxCell>
        <mxCell id="Vdofp5Nk-h54q8rI2jxK-51" value="" style="edgeStyle=orthogonalEdgeStyle;rounded=0;orthogonalLoop=1;jettySize=auto;html=1;" edge="1" parent="WIyWlLk6GJQsqaUBKTNV-1" source="Vdofp5Nk-h54q8rI2jxK-48" target="Vdofp5Nk-h54q8rI2jxK-50">
          <mxGeometry relative="1" as="geometry" />
        </mxCell>
        <mxCell id="Vdofp5Nk-h54q8rI2jxK-48" value="RESTO!=0" style="whiteSpace=wrap;html=1;rounded=1;strokeWidth=2;arcSize=11;shape=mxgraph.flowchart.decision;" vertex="1" parent="WIyWlLk6GJQsqaUBKTNV-1">
          <mxGeometry x="560" y="580" width="120" height="60" as="geometry" />
        </mxCell>
        <mxCell id="Vdofp5Nk-h54q8rI2jxK-59" value="" style="edgeStyle=orthogonalEdgeStyle;rounded=0;orthogonalLoop=1;jettySize=auto;html=1;" edge="1" parent="WIyWlLk6GJQsqaUBKTNV-1" source="Vdofp5Nk-h54q8rI2jxK-50" target="Vdofp5Nk-h54q8rI2jxK-58">
          <mxGeometry relative="1" as="geometry" />
        </mxCell>
        <mxCell id="Vdofp5Nk-h54q8rI2jxK-50" value="N" style="whiteSpace=wrap;html=1;rounded=1;strokeWidth=2;arcSize=11;shape=mxgraph.flowchart.display;" vertex="1" parent="WIyWlLk6GJQsqaUBKTNV-1">
          <mxGeometry x="560" y="720" width="120" height="60" as="geometry" />
        </mxCell>
        <mxCell id="Vdofp5Nk-h54q8rI2jxK-56" value="Fim" style="rhombus;whiteSpace=wrap;html=1;rounded=1;strokeWidth=2;arcSize=11;shape=mxgraph.flowchart.start_1;perimeter=rectanglePerimeter;" vertex="1" parent="WIyWlLk6GJQsqaUBKTNV-1">
          <mxGeometry x="567.5" y="980" width="105" height="60" as="geometry" />
        </mxCell>
        <mxCell id="Vdofp5Nk-h54q8rI2jxK-58" value="N←N+1" style="rounded=1;whiteSpace=wrap;html=1;strokeWidth=2;arcSize=11;" vertex="1" parent="WIyWlLk6GJQsqaUBKTNV-1">
          <mxGeometry x="560" y="860" width="120" height="60" as="geometry" />
        </mxCell>
      </root>
    </mxGraphModel>
  </diagram>
</mxfile>
